<?xml version="1.0" encoding="utf-8"?>
<!-- Generator: Adobe Illustrator 22.0.1, SVG Export Plug-In . SVG Version: 6.00 Build 0)  -->
<svg version="1.1" id="圖層_1" xmlns="http://www.w3.org/2000/svg" xmlns:xlink="http://www.w3.org/1999/xlink" x="0px" y="0px"
	 viewBox="0 0 250 100" style="enable-background:new 0 0 250 100;" xml:space="preserve">
<style type="text/css">
	.st0{fill:#FF6666;}
	.st1{fill:#663333;}
	.st2{fill:#2F62F2;}
	.st3{fill:#CCCCCC;}
	.st4{fill:#CC9933;}
	.st5{fill:#FFCC66;}
</style>
<g>
	<path class="st0" d="M240.8,14.5c-3.4-1.5-7.3-1.1-9.9,1.1c-0.2-3.4-2.5-6.6-6-8c-5.3-2.3-14.3-1.2-16.2,12
		c-1.3,13.1,9.2,25.7,9.2,25.7c0,0,16.4-0.8,25.1-10.7C251.4,24.3,246.1,16.9,240.8,14.5z"/>
</g>
<g>
	<path class="st1" d="M78.7,17.5c-0.5,1.4-1,2.5-1.6,3.2L76,19.8c0.6-0.8,1-1.8,1.5-2.9L78.7,17.5z M83.5,16.5h-3v5.3h-1.4v-5.3
		h-2.9v-1.3h2.9v-1.3h-2.8v-1.3h1.6c-0.2-0.5-0.4-1.1-0.7-1.8l1-0.5h-1.8V9h2.6c-0.1-0.3-0.3-0.6-0.5-1l1.5-0.3
		c0.3,0.5,0.5,1,0.6,1.3h2.7v1.3h-1.7l1,0.5c-0.3,0.6-0.5,1.2-0.8,1.8h1.6v1.3h-2.7v1.3h3V16.5z M81.1,10.3h-2.6
		c0.4,0.8,0.6,1.6,0.8,2.3h0.9C80.6,11.9,80.9,11.1,81.1,10.3z M83.2,19L82,19.7c-0.2-0.8-0.6-1.6-1-2.4l1.2-0.5
		C82.7,17.6,83,18.3,83.2,19z M90,14h-1.5v7.8h-1.4V14h-1.6c0,3.6-0.6,6.3-1.8,7.8l-1.2-1c1-1.4,1.6-3.5,1.6-6.4V8.9
		c1.8-0.2,3.3-0.6,4.5-1.2l1,1.2c-1.2,0.5-2.5,0.9-4.1,1.2v2.5H90V14z"/>
	<path class="st1" d="M99.4,19.6c-2.3,0.9-4.6,1.7-7,2.2L92,20.5c1.6-0.4,3-0.8,4.2-1.2v-5.6h-3.9v-1.5h3.9V7.9h1.5v10.9
		c0.4-0.2,1-0.4,1.7-0.6L99.4,19.6z M106.1,17.7c0,0.9-0.1,1.6-0.3,2.4c-0.2,0.7-0.4,1.2-0.7,1.4c-0.3,0.2-1,0.3-2.1,0.3
		c-0.7,0-1.2,0-1.6-0.1c-0.4,0-0.7-0.2-0.9-0.4c-0.2-0.3-0.3-0.6-0.3-1.1V7.9h1.5v4.4h4.1v1.5h-4.1v6.2c0,0.1,0.1,0.2,0.2,0.3
		s0.5,0.1,1.2,0.1c0.5,0,0.8,0,1-0.1c0.2,0,0.4-0.4,0.4-1.2c0.1-0.7,0.1-1.3,0.1-1.8L106.1,17.7z"/>
	<path class="st1" d="M122,10.9h-6.3v2h5.3v5.8c0,1.3-0.5,1.9-1.5,1.9c-0.9,0-1.6,0-1.9,0l-0.5-1.5c0.7,0,1.4,0.1,2,0.1
		c0.1,0,0.2,0,0.3-0.1s0.1-0.2,0.1-0.2v-4.5h-3.8v7.5h-1.5v-7.5h-3.8v6.2H109v-7.6h5.3v-2h-6.2V9.5h6.2c-0.2-0.5-0.5-0.9-0.9-1.4
		l1.6-0.4c0.3,0.5,0.7,1.1,1,1.8h6V10.9z"/>
	<path class="st1" d="M131.5,8.9c-0.7,0.2-1.7,0.4-2.9,0.6v1.9h2.7v1.4h-2.7v0.4c1.1,0.9,2.1,1.8,2.8,2.6l-0.7,1.3
		c-0.7-0.9-1.4-1.6-2.1-2.2v6.8h-1.4v-6.6c-0.8,1.6-1.7,2.8-2.6,3.8l-0.7-1.4c1.1-1.1,2.1-2.7,3.1-4.7h-2.8v-1.4h3V9.8
		c-0.8,0.1-1.5,0.2-2,0.2l-0.7-1.4c2.1-0.1,4.1-0.3,6.1-0.9L131.5,8.9z M138.1,21.1l-1.3,0.8c-0.1-0.7-0.3-1.3-0.5-1.8
		c-2.3,0.7-4.4,1.2-6.1,1.4l-0.4-1.3c0.8-0.6,1.5-2.1,2-4.5c0.5-2.4,0.8-5,1-7.9l1.5,0.1c-0.3,5.3-1.1,9.2-2.3,11.7
		c1.2-0.2,2.5-0.5,3.9-0.9c-0.4-1.1-0.9-2.4-1.5-3.9l1.3-0.7C136.9,16.9,137.7,19.2,138.1,21.1z"/>
	<path class="st1" d="M154,21.4h-13.9V20h4.1c-0.5-2.9-1.2-5.3-2-7.4l1.1-0.8h-2.6v-1.4h5.8c-0.3-0.8-0.6-1.5-1.1-2.2l1.5-0.5
		c0.5,0.9,0.9,1.8,1.2,2.8h5.4v1.4h-2.9l1.2,0.8c-0.3,2.2-0.9,4.6-1.9,7.4h4V21.4z M150.5,11.8h-7c0.9,2.4,1.6,5.1,2.1,8.1h2.8
		C149.5,17,150.2,14.2,150.5,11.8z"/>
</g>
<g>
	<path class="st2" d="M81.5,53.7c-1.4,3.8-2.8,6.7-4.3,8.8l-3.2-2.4c1.5-2.2,2.9-4.8,4-8L81.5,53.7z M94.6,50.9h-8.2v14.7h-3.9V50.9
		h-8.1v-3.7h8.1v-3.5h-7.6v-3.5h4.3c-0.4-1.4-1-3.1-1.8-5l2.6-1.4h-5v-3.5h7c-0.3-0.8-0.7-1.7-1.3-2.7l4.2-0.9
		c0.8,1.5,1.3,2.7,1.6,3.6h7.4v3.5h-4.8l2.7,1.5c-0.7,1.8-1.4,3.4-2.2,4.9h4.3v3.5h-7.5v3.5h8.2V50.9z M88.1,33.9H81
		c1,2.2,1.7,4.3,2.3,6.4h2.3C86.6,38.3,87.5,36.2,88.1,33.9z M93.8,57.9l-3.2,1.8c-0.7-2.3-1.6-4.5-2.8-6.6l3.3-1.5
		C92.4,53.9,93.3,56,93.8,57.9z M112.6,44h-4v21.5h-3.8V44h-4.4c-0.1,10-1.8,17.2-5,21.5l-3.2-2.6c2.9-3.9,4.3-9.8,4.3-17.7V30.2
		c4.9-0.7,9.1-1.8,12.4-3.3l2.7,3.3c-3.2,1.4-6.9,2.5-11.2,3.3v6.7h12.3V44z"/>
	<path class="st2" d="M156.8,53.6l-3.2,2c-0.7-0.8-1.6-1.8-2.7-2.9c-9.7,0.8-20.3,1.2-31.8,1.3l-0.7-3.3c6.8,0,12.5-0.1,17.2-0.3
		v-2.8h-13.6V35h13.6v-2.2h-17.3v-3.3h17.3v-2.3h3.7v2.3h17.2v3.3h-17.2V35H153v12.7h-2.6C152.7,49.5,154.8,51.5,156.8,53.6z
		 M126.2,56.7c-1.3,3.2-2.9,5.8-4.7,7.9l-3.3-2.1c1.8-2.1,3.3-4.5,4.5-7.2L126.2,56.7z M135.6,39.9v-2h-9.8v2H135.6z M135.6,44.8
		v-2.2h-9.8v2.2H135.6z M148.5,59.1c-0.2,2.1-0.6,3.6-1.2,4.6c-0.7,1-1.7,1.4-3.2,1.4h-12.4c-0.9,0-1.7-0.4-2.2-1.1
		c-0.6-0.7-0.8-1.4-0.8-2.3v-6h3.8v4.8c0,0.7,0.3,1.1,1.1,1.1l9.3,0c1.2,0,1.8-1.2,1.8-3.5L148.5,59.1z M142.7,58l-3.4,1.8
		c-1.2-1.6-2.3-2.9-3.4-3.8l3.4-1.9C140.8,55.4,141.9,56.7,142.7,58z M149.2,39.9v-2h-9.8v2H149.2z M149.2,44.8v-2.2h-9.8v2.2H149.2
		z M149.2,47.7h-9.8v2.6c3.5-0.1,6.2-0.2,8.2-0.5c-0.5-0.4-0.9-0.7-1.2-0.9L149.2,47.7z M156.8,62.6l-3.5,1.8
		c-0.8-1.9-2.5-4.6-5-8.1l3.4-1.5C153.5,57.3,155.3,59.9,156.8,62.6z"/>
	<path class="st2" d="M180.5,60.8l-3.7,1.5c-0.1-0.8-0.3-1.5-0.5-2.1c-3.7,1.4-8,2.7-12.8,4.1l-1.2-3.8c3-3.3,6-7.8,8.9-13.5
		c-3.3,0.5-5.7,0.9-7.4,1.1l-0.9-3.7c3-4.6,5.4-10.5,7.2-17.7l4.1,1.2c-1.7,5.6-3.9,10.9-6.5,15.8c1.4-0.1,3.3-0.5,5.6-1
		c1.5-3.3,2.5-5.7,3-7.2l3.8,1.5c-3.4,8.5-7.4,15.8-11.9,22.1c2.3-0.6,4.6-1.3,7.1-2.3c-0.5-1.6-1.1-3-1.7-4.1l3.7-1.1
		C178.8,54.6,179.9,57.7,180.5,60.8z M199.6,34.4l-0.4,15.9c-0.3,8-0.7,12.3-1.3,13c-0.6,0.7-1.2,1.3-1.9,1.7
		c-0.7,0.4-2.8,0.6-6.3,0.5l-1.1-4l4.5,0.1c0.4,0,0.8-0.1,1-0.3c0.3-0.2,0.4-0.5,0.5-0.8c0.1-0.3,0.2-1.9,0.3-5l0.4-9.4
		c0.1-3.3,0.2-6,0.2-8.1h-5.2c0,7.4-0.7,13.2-2,17.3c-1.3,4.1-3.2,7.6-5.7,10.6l-3.4-2.3c2.6-3.3,4.4-6.7,5.4-10.1
		c1-3.4,1.6-8.6,1.7-15.5h-5.8v-3.7h5.8v-7.2h4v7.2H199.6z"/>
</g>
<g>
	<path class="st1" d="M209.7,64.1l-1.3,0.5c-0.1-0.3-0.1-0.5-0.2-0.8c-1.3,0.5-2.9,1-4.7,1.5l-0.5-1.4c1.1-1.2,2.2-2.8,3.2-4.9
		c-1.2,0.2-2.1,0.3-2.7,0.4l-0.3-1.3c1.1-1.7,2-3.8,2.6-6.4l1.5,0.4c-0.6,2-1.4,3.9-2.4,5.7c0.5,0,1.2-0.2,2-0.4
		c0.5-1.2,0.9-2.1,1.1-2.6l1.4,0.5c-1.2,3.1-2.7,5.8-4.3,8c0.8-0.2,1.7-0.5,2.6-0.8c-0.2-0.6-0.4-1.1-0.6-1.5l1.3-0.4
		C209.1,61.8,209.5,63,209.7,64.1z M216.7,54.5l-0.1,5.8c-0.1,2.9-0.3,4.5-0.5,4.7s-0.4,0.5-0.7,0.6s-1,0.2-2.3,0.2l-0.4-1.4l1.6,0
		c0.2,0,0.3,0,0.4-0.1s0.2-0.2,0.2-0.3s0.1-0.7,0.1-1.8l0.1-3.4c0-1.2,0.1-2.2,0.1-2.9h-1.9c0,2.7-0.3,4.8-0.7,6.3s-1.2,2.8-2.1,3.8
		l-1.3-0.8c0.9-1.2,1.6-2.4,2-3.7s0.6-3.1,0.6-5.6h-2.1v-1.3h2.1v-2.6h1.4v2.6H216.7z"/>
	<path class="st1" d="M233.1,62.5c0,0.4-0.1,0.9-0.2,1.5s-0.3,1-0.6,1.2s-0.6,0.4-0.9,0.4s-1,0-1.8,0c-1,0-1.6,0-1.9-0.1
		s-0.5-0.2-0.6-0.4s-0.3-0.5-0.3-0.8v-4.6h-2c-0.2,3.2-1.9,5.2-5.2,6.1l-0.7-1.3c2.9-0.7,4.4-2.3,4.4-4.8h-3.2v-7
		c2.1-0.3,3.8-0.7,4.9-1.2l0.7,1.3c-1.3,0.5-2.7,0.8-4.1,1v1.5h3.7v1.3h-3.7v1.8h8.7v-1.8h-3.7v-1.3h3.7v-1.7h-3.8v-1.3h5.3v7.5
		h-3.6v4.1c0,0.2,0.1,0.3,0.2,0.3s0.5,0.1,1.3,0.1c0.8,0,1.2,0,1.4-0.1s0.3-0.3,0.4-0.8s0.1-1,0.1-1.4L233.1,62.5z"/>
	<path class="st1" d="M248.4,65.8H247v-0.6h-10v0.6h-1.4V52.1h12.8V65.8z M247,64V53.3h-10V64H247z M245.7,60.3h-3.8
		c-0.2,0.3-0.5,0.5-0.8,0.7v1.3c0.4-0.1,0.8-0.2,1.4-0.4l0.1,1.1c-1.2,0.4-2.1,0.7-2.8,0.8l-0.3-1c0.2-0.1,0.3-0.3,0.3-0.5v-0.4
		c-0.7,0.4-1.4,0.7-1.9,0.8l-0.5-1.1c1.4-0.5,2.3-0.9,2.9-1.4h-1.9v-2.7h7.4V60.3z M246.5,57h-9v-1h3.8v-0.7H238v-1h3.3v-0.6h1.4
		v0.6h3.3v1h-3.3V56h3.8V57z M244.3,59.3v-0.8h-4.6v0.8H244.3z M246.6,62.8l-0.8,0.9c-1.1-0.8-2.4-1.6-3.8-2.3l0.8-0.8
		c0.4,0.1,0.9,0.4,1.4,0.7c0.3-0.3,0.7-0.6,1-0.9l1.1,0.6c-0.3,0.3-0.7,0.6-1,0.9C245.8,62.2,246.2,62.5,246.6,62.8z"/>
</g>
<g>
	<path class="st1" d="M76.2,86.7V73.8h1.9l7.4,10.1V73.8h1.8v12.9h-1.9L78,76.5v10.1H76.2z"/>
	<path class="st1" d="M92,86.7V73.8h10.2v1.5h-8.4v3.9h7.8v1.5h-7.8v4.4h8.7v1.5H92z"/>
	<path class="st1" d="M109.1,86.7l-3.8-12.9h1.9l2.2,8.4c0.2,0.9,0.4,1.8,0.6,2.6c0.4-1.4,0.6-2.2,0.6-2.4l2.7-8.7h2.3l2,6.5
		c0.5,1.6,0.9,3.1,1.1,4.6c0.2-0.8,0.4-1.7,0.7-2.8l2.2-8.3h1.9l-3.9,12.9h-1.8l-3-9.8c-0.3-0.8-0.4-1.3-0.4-1.5
		c-0.1,0.6-0.3,1.1-0.4,1.5l-3,9.8H109.1z"/>
	<path class="st1" d="M133.9,86.7V73.8h1.9v5.3h7.4v-5.3h1.9v12.9h-1.9v-6.1h-7.4v6.1H133.9z"/>
	<path class="st1" d="M149.7,86.7V73.8h10.2v1.5h-8.4v3.9h7.8v1.5h-7.8v4.4h8.7v1.5H149.7z"/>
	<path class="st1" d="M168.3,86.7v-5.5l-5.5-7.4h2.3l2.8,3.9c0.5,0.7,1,1.5,1.4,2.2c0.4-0.7,0.9-1.4,1.5-2.3l2.7-3.8h2.2l-5.7,7.4
		v5.5H168.3z"/>
	<path class="st1" d="M183,86.7v-5.5l-5.5-7.4h2.3l2.8,3.9c0.5,0.7,1,1.5,1.4,2.2c0.4-0.7,0.9-1.4,1.5-2.3l2.7-3.8h2.2l-5.7,7.4v5.5
		H183z"/>
	<path class="st1" d="M193.1,80.4c0-2.1,0.6-3.8,1.9-5c1.3-1.2,2.9-1.8,4.9-1.8c1.3,0,2.5,0.3,3.5,0.9s1.9,1.4,2.4,2.4
		c0.6,1,0.8,2.2,0.8,3.5c0,1.3-0.3,2.5-0.9,3.5s-1.4,1.8-2.5,2.3c-1.1,0.5-2.2,0.8-3.4,0.8c-1.3,0-2.5-0.3-3.6-0.9s-1.8-1.4-2.4-2.4
		C193.4,82.6,193.1,81.5,193.1,80.4z M195,80.4c0,1.6,0.5,2.8,1.4,3.7c0.9,0.9,2.1,1.3,3.5,1.3c1.4,0,2.6-0.5,3.5-1.4
		s1.4-2.2,1.4-3.8c0-1-0.2-2-0.6-2.7c-0.4-0.8-1-1.4-1.7-1.8c-0.8-0.4-1.6-0.6-2.5-0.6c-1.3,0-2.5,0.4-3.4,1.2
		C195.5,77.1,195,78.5,195,80.4z"/>
	<path class="st1" d="M213,86.7l-3.8-12.9h1.9l2.2,8.4c0.2,0.9,0.4,1.8,0.6,2.6c0.4-1.4,0.6-2.2,0.6-2.4l2.7-8.7h2.3l2,6.5
		c0.5,1.6,0.9,3.1,1.1,4.6c0.2-0.8,0.4-1.7,0.7-2.8l2.2-8.3h1.9l-3.9,12.9h-1.8l-3-9.8c-0.3-0.8-0.4-1.3-0.4-1.5
		c-0.1,0.6-0.3,1.1-0.4,1.5l-3,9.8H213z"/>
</g>
<g>
	<path class="st3" d="M32.7,29.9c-1.1,0.3-2,1-2.6,1.9c-0.6,0.9-0.7,2-0.5,3.1c0.6,2.2,2.9,3.4,5.1,2.8l0,0c1.1-0.3,2-1,2.6-1.9
		c0.6-0.9,0.7-2,0.5-3.1C37.2,30.5,34.9,29.3,32.7,29.9z"/>
	<path class="st0" d="M32.2,28c0.6-0.2,1.3-0.2,1.9-0.2c0.5-4.9-0.4-11.4-6.2-16.8l-22.5,6L28.9,30C29.8,29,30.9,28.3,32.2,28z"/>
	<path class="st4" d="M27.9,31.7l-9.7-5.4l-5.4,9C18,31.9,23.6,31.3,27.9,31.7z"/>
	<path class="st4" d="M36,28.2l5.8-9.6l-9.3-5.1C35.9,18.5,36.4,23.9,36,28.2C36,28.2,36,28.2,36,28.2z"/>
	<path class="st5" d="M39.7,32.2c0.2,0.6,0.2,1.2,0.2,1.8c5,0.4,11.8-0.6,17.6-6.4L51.7,6l-14,23.2C38.6,29.9,39.3,30.9,39.7,32.2z"
		/>
	<path class="st4" d="M39.5,35.9l9.7,5.4l5.4-9c-2.1,1.4-4.3,2.3-6.5,2.9C45.1,36,42.1,36.1,39.5,35.9z"/>
	<path class="st5" d="M27.7,35.4c-0.2-0.6-0.2-1.2-0.2-1.8c-5-0.4-11.8,0.6-17.6,6.4l5.8,21.6l14-23.2
		C28.8,37.7,28.1,36.6,27.7,35.4z"/>
	<path class="st4" d="M31.4,39.4L25.6,49l9.3,5.1C31.5,49,31,43.6,31.4,39.4C31.4,39.4,31.4,39.4,31.4,39.4z"/>
	<path class="st0" d="M35.2,39.6L35.2,39.6C35.2,39.6,35.2,39.6,35.2,39.6c-0.6,0.2-1.3,0.2-1.9,0.2c-0.5,4.9,0.4,11.4,6.2,16.8
		l22.5-6L38.5,37.5C37.6,38.5,36.5,39.2,35.2,39.6z"/>
	<path class="st1" d="M52.2,2.5c-0.4-0.1-0.8,0.1-1,0.5l-8.4,13.9L28.5,9c-0.2-0.1-0.5-0.2-0.7-0.1L2.5,15.7
		c-0.4,0.1-0.7,0.4-0.7,0.8c0,0.4,0.1,0.8,0.5,1l14.2,7.9L8.1,39.2c-0.1,0.2-0.2,0.5-0.1,0.8l6.5,24.4c0.1,0.4,0.4,0.7,0.8,0.7
		c0.5,0.1,0.8-0.2,1-0.5l8.4-13.9l14.2,7.9c0.1,0.1,0.3,0.1,0.5,0.1l8.3,31.2c0.1,0.5,0.7,0.8,1.2,0.7c0.5-0.1,0.8-0.7,0.7-1.2
		l-8.3-31.2l23.7-6.3c0.4-0.1,0.7-0.4,0.7-0.8c0-0.4-0.1-0.8-0.5-1L51,42.2l8.4-13.9c0.1-0.2,0.2-0.5,0.1-0.8L53,3.2
		C52.9,2.9,52.6,2.6,52.2,2.5z M32.5,13.4l9.3,5.1L36,28.2c0,0,0,0,0,0C36.4,23.9,35.9,18.5,32.5,13.4z M37.8,32.7
		c0.3,1,0.1,2.1-0.5,3.1c-0.6,1-1.5,1.6-2.6,1.9l0,0c-2.3,0.6-4.6-0.7-5.1-2.8c-0.3-1-0.1-2.1,0.5-3.1c0.6-1,1.5-1.6,2.6-1.9
		C34.9,29.3,37.2,30.5,37.8,32.7z M5.3,16.9l22.5-6c5.8,5.4,6.7,12,6.2,16.8c-0.6,0-1.2,0-1.9,0.2c-1.3,0.3-2.4,1.1-3.2,2L5.3,16.9z
		 M18.1,26.3l9.7,5.4c-4.3-0.3-9.9,0.2-15.2,3.6L18.1,26.3z M15.7,61.6L10,40c5.8-5.8,12.5-6.7,17.6-6.4c0,0.6,0,1.2,0.2,1.8
		c0.3,1.3,1.1,2.3,2,3.1L15.7,61.6z M34.9,54.1L25.6,49l5.8-9.6c0,0,0,0,0,0C31,43.6,31.5,49,34.9,54.1z M62.1,50.6l-22.5,6
		c-5.8-5.4-6.7-12-6.2-16.8c0.6,0,1.2,0,1.9-0.2c0,0,0,0,0,0l0,0c1.3-0.3,2.4-1.1,3.2-2L62.1,50.6z M49.3,41.3l-9.7-5.4
		c2.6,0.2,5.6,0.1,8.7-0.7c2.1-0.6,4.3-1.5,6.5-2.9L49.3,41.3z M57.4,27.6c-5.8,5.8-12.5,6.7-17.6,6.4c0-0.6,0-1.2-0.2-1.8
		c-0.3-1.3-1.1-2.3-2-3.1L51.7,6L57.4,27.6L57.4,27.6z"/>
</g>
</svg>
